<mxfile host="app.diagrams.net" modified="2022-09-10T07:52:45.716Z" agent="5.0 (Windows NT 10.0; Win64; x64) AppleWebKit/537.36 (KHTML, like Gecko) Chrome/105.0.0.0 Safari/537.36" etag="YLlna64xPt6Wubi_pkIG" version="20.3.0" type="github">
  <diagram id="kgpKYQtTHZ0yAKxKKP6v" name="Page-1">
    <mxGraphModel dx="1153" dy="599" grid="1" gridSize="10" guides="1" tooltips="1" connect="1" arrows="1" fold="1" page="1" pageScale="1" pageWidth="1200" pageHeight="1920" math="0" shadow="0">
      <root>
        <mxCell id="0" />
        <mxCell id="1" parent="0" />
        <mxCell id="3nuBFxr9cyL0pnOWT2aG-1" value=":Login" style="shape=umlLifeline;perimeter=lifelinePerimeter;container=1;collapsible=0;recursiveResize=0;rounded=0;shadow=0;strokeWidth=1;" parent="1" vertex="1">
          <mxGeometry x="220" y="120" width="100" height="300" as="geometry" />
        </mxCell>
        <mxCell id="3nuBFxr9cyL0pnOWT2aG-2" value="" style="points=[];perimeter=orthogonalPerimeter;rounded=0;shadow=0;strokeWidth=1;" parent="3nuBFxr9cyL0pnOWT2aG-1" vertex="1">
          <mxGeometry x="45" y="70" width="10" height="190" as="geometry" />
        </mxCell>
        <mxCell id="3nuBFxr9cyL0pnOWT2aG-4" value="" style="points=[];perimeter=orthogonalPerimeter;rounded=0;shadow=0;strokeWidth=1;" parent="3nuBFxr9cyL0pnOWT2aG-1" vertex="1">
          <mxGeometry x="50" y="120" width="10" height="80" as="geometry" />
        </mxCell>
        <mxCell id="UYT9CBy9pAq7YvCIUte8-8" value="" style="endArrow=classic;html=1;rounded=0;" edge="1" parent="3nuBFxr9cyL0pnOWT2aG-1">
          <mxGeometry width="50" height="50" relative="1" as="geometry">
            <mxPoint x="-50" y="80" as="sourcePoint" />
            <mxPoint x="40" y="80" as="targetPoint" />
            <Array as="points">
              <mxPoint x="40" y="80" />
            </Array>
          </mxGeometry>
        </mxCell>
        <mxCell id="UYT9CBy9pAq7YvCIUte8-10" value="1. Isi email &amp;amp; password()" style="text;html=1;strokeColor=none;fillColor=none;align=center;verticalAlign=middle;whiteSpace=wrap;rounded=0;fontSize=9;" vertex="1" parent="3nuBFxr9cyL0pnOWT2aG-1">
          <mxGeometry x="-61" y="60" width="106" height="20" as="geometry" />
        </mxCell>
        <mxCell id="3nuBFxr9cyL0pnOWT2aG-5" value=":Kontrol login" style="shape=umlLifeline;perimeter=lifelinePerimeter;container=1;collapsible=0;recursiveResize=0;rounded=0;shadow=0;strokeWidth=1;" parent="1" vertex="1">
          <mxGeometry x="400" y="120" width="100" height="300" as="geometry" />
        </mxCell>
        <mxCell id="3nuBFxr9cyL0pnOWT2aG-6" value="" style="points=[];perimeter=orthogonalPerimeter;rounded=0;shadow=0;strokeWidth=1;" parent="3nuBFxr9cyL0pnOWT2aG-5" vertex="1">
          <mxGeometry x="45" y="80" width="10" height="160" as="geometry" />
        </mxCell>
        <mxCell id="UYT9CBy9pAq7YvCIUte8-29" value="&lt;div style=&quot;text-align: center; font-size: 9px;&quot;&gt;&lt;span style=&quot;font-size: 9px; background-color: rgb(255, 255, 255);&quot;&gt;5. email / password salah&lt;/span&gt;&lt;/div&gt;" style="text;whiteSpace=wrap;html=1;fontSize=9;" vertex="1" parent="3nuBFxr9cyL0pnOWT2aG-5">
          <mxGeometry x="-65" y="140" width="110" height="20" as="geometry" />
        </mxCell>
        <mxCell id="3nuBFxr9cyL0pnOWT2aG-7" value="10. Menampilkan Menu" style="verticalAlign=bottom;endArrow=open;dashed=1;endSize=8;exitX=0;exitY=0.95;shadow=0;strokeWidth=1;fontSize=10;" parent="1" edge="1">
          <mxGeometry relative="1" as="geometry">
            <mxPoint x="275" y="347.9999999999999" as="targetPoint" />
            <mxPoint x="445" y="347.9999999999999" as="sourcePoint" />
          </mxGeometry>
        </mxCell>
        <mxCell id="3nuBFxr9cyL0pnOWT2aG-8" value="2. email, password()" style="verticalAlign=bottom;endArrow=block;entryX=0;entryY=0;shadow=0;strokeWidth=1;fontSize=11;" parent="1" source="3nuBFxr9cyL0pnOWT2aG-2" target="3nuBFxr9cyL0pnOWT2aG-6" edge="1">
          <mxGeometry relative="1" as="geometry">
            <mxPoint x="375" y="200" as="sourcePoint" />
          </mxGeometry>
        </mxCell>
        <mxCell id="UYT9CBy9pAq7YvCIUte8-1" value="Pengguna" style="shape=umlActor;verticalLabelPosition=bottom;verticalAlign=top;html=1;" vertex="1" parent="1">
          <mxGeometry x="150" y="100" width="30" height="60" as="geometry" />
        </mxCell>
        <mxCell id="UYT9CBy9pAq7YvCIUte8-2" value=":Data User" style="shape=umlLifeline;perimeter=lifelinePerimeter;container=1;collapsible=0;recursiveResize=0;rounded=0;shadow=0;strokeWidth=1;" vertex="1" parent="1">
          <mxGeometry x="530" y="120" width="100" height="300" as="geometry" />
        </mxCell>
        <mxCell id="UYT9CBy9pAq7YvCIUte8-3" value="" style="points=[];perimeter=orthogonalPerimeter;rounded=0;shadow=0;strokeWidth=1;" vertex="1" parent="UYT9CBy9pAq7YvCIUte8-2">
          <mxGeometry x="45" y="80" width="10" height="160" as="geometry" />
        </mxCell>
        <mxCell id="UYT9CBy9pAq7YvCIUte8-21" value="" style="rounded=0;whiteSpace=wrap;html=1;fontSize=12;" vertex="1" parent="UYT9CBy9pAq7YvCIUte8-2">
          <mxGeometry x="51" y="94" width="10" height="30" as="geometry" />
        </mxCell>
        <mxCell id="UYT9CBy9pAq7YvCIUte8-23" value="" style="endArrow=classic;html=1;rounded=0;fontSize=9;exitX=0.913;exitY=0.027;exitDx=0;exitDy=0;exitPerimeter=0;entryX=1.193;entryY=0.178;entryDx=0;entryDy=0;entryPerimeter=0;" edge="1" parent="UYT9CBy9pAq7YvCIUte8-2" source="UYT9CBy9pAq7YvCIUte8-3" target="UYT9CBy9pAq7YvCIUte8-21">
          <mxGeometry width="50" height="50" relative="1" as="geometry">
            <mxPoint x="70" y="90" as="sourcePoint" />
            <mxPoint x="110" y="110" as="targetPoint" />
            <Array as="points">
              <mxPoint x="80" y="84" />
              <mxPoint x="80" y="100" />
            </Array>
          </mxGeometry>
        </mxCell>
        <mxCell id="UYT9CBy9pAq7YvCIUte8-4" value=":Menu" style="shape=umlLifeline;perimeter=lifelinePerimeter;container=1;collapsible=0;recursiveResize=0;rounded=0;shadow=0;strokeWidth=1;" vertex="1" parent="1">
          <mxGeometry x="650" y="120" width="100" height="300" as="geometry" />
        </mxCell>
        <mxCell id="UYT9CBy9pAq7YvCIUte8-5" value="" style="points=[];perimeter=orthogonalPerimeter;rounded=0;shadow=0;strokeWidth=1;" vertex="1" parent="UYT9CBy9pAq7YvCIUte8-4">
          <mxGeometry x="45" y="170" width="10" height="70" as="geometry" />
        </mxCell>
        <mxCell id="UYT9CBy9pAq7YvCIUte8-32" value="&lt;span style=&quot;color: rgb(0, 0, 0); font-family: Helvetica; font-size: 9px; font-style: normal; font-variant-ligatures: normal; font-variant-caps: normal; font-weight: 400; letter-spacing: normal; orphans: 2; text-align: center; text-indent: 0px; text-transform: none; widows: 2; word-spacing: 0px; -webkit-text-stroke-width: 0px; background-color: rgb(255, 255, 255); text-decoration-thickness: initial; text-decoration-style: initial; text-decoration-color: initial; float: none; display: inline !important;&quot;&gt;7. Menampilkan Menu()&lt;/span&gt;" style="text;whiteSpace=wrap;html=1;fontSize=9;" vertex="1" parent="UYT9CBy9pAq7YvCIUte8-4">
          <mxGeometry x="-59" y="150" width="99" height="20" as="geometry" />
        </mxCell>
        <mxCell id="UYT9CBy9pAq7YvCIUte8-7" value="" style="endArrow=none;dashed=1;html=1;rounded=0;" edge="1" parent="1">
          <mxGeometry width="50" height="50" relative="1" as="geometry">
            <mxPoint x="164" y="420" as="sourcePoint" />
            <mxPoint x="164" y="200" as="targetPoint" />
          </mxGeometry>
        </mxCell>
        <mxCell id="UYT9CBy9pAq7YvCIUte8-17" value="3. data user()" style="verticalAlign=bottom;endArrow=block;shadow=0;strokeWidth=1;fontSize=12;" edge="1" parent="1">
          <mxGeometry relative="1" as="geometry">
            <mxPoint x="460" y="210.0000000000001" as="sourcePoint" />
            <mxPoint x="570" y="210" as="targetPoint" />
          </mxGeometry>
        </mxCell>
        <mxCell id="UYT9CBy9pAq7YvCIUte8-24" value="&lt;span style=&quot;color: rgb(0, 0, 0); font-family: Helvetica; font-size: 10px; font-style: normal; font-variant-ligatures: normal; font-variant-caps: normal; font-weight: 400; letter-spacing: normal; orphans: 2; text-align: center; text-indent: 0px; text-transform: none; widows: 2; word-spacing: 0px; -webkit-text-stroke-width: 0px; background-color: rgb(255, 255, 255); text-decoration-thickness: initial; text-decoration-style: initial; text-decoration-color: initial; float: none; display: inline !important;&quot;&gt;4. Validasi data()&lt;/span&gt;" style="text;whiteSpace=wrap;html=1;fontSize=10;" vertex="1" parent="1">
          <mxGeometry x="585" y="186" width="80" height="20" as="geometry" />
        </mxCell>
        <mxCell id="UYT9CBy9pAq7YvCIUte8-28" value="" style="endArrow=classic;html=1;rounded=0;fontSize=10;entryX=1;entryY=0.5;entryDx=0;entryDy=0;entryPerimeter=0;dashed=1;" edge="1" parent="1" target="3nuBFxr9cyL0pnOWT2aG-4">
          <mxGeometry width="50" height="50" relative="1" as="geometry">
            <mxPoint x="579.5" y="281" as="sourcePoint" />
            <mxPoint x="520" y="281" as="targetPoint" />
          </mxGeometry>
        </mxCell>
        <mxCell id="UYT9CBy9pAq7YvCIUte8-30" value="6. pesan error login" style="verticalAlign=bottom;endArrow=open;dashed=1;endSize=8;shadow=0;strokeWidth=1;fontSize=9;" edge="1" parent="1">
          <mxGeometry relative="1" as="geometry">
            <mxPoint x="170" y="280" as="targetPoint" />
            <mxPoint x="260" y="280" as="sourcePoint" />
          </mxGeometry>
        </mxCell>
        <mxCell id="UYT9CBy9pAq7YvCIUte8-31" value="" style="endArrow=classic;html=1;rounded=0;fontSize=9;exitX=0.968;exitY=0.561;exitDx=0;exitDy=0;exitPerimeter=0;" edge="1" parent="1" source="UYT9CBy9pAq7YvCIUte8-3">
          <mxGeometry width="50" height="50" relative="1" as="geometry">
            <mxPoint x="590" y="290" as="sourcePoint" />
            <mxPoint x="690" y="290" as="targetPoint" />
          </mxGeometry>
        </mxCell>
        <mxCell id="UYT9CBy9pAq7YvCIUte8-34" value="8. Menampilkan Menu" style="verticalAlign=bottom;endArrow=open;dashed=1;endSize=8;exitX=0;exitY=0.95;shadow=0;strokeWidth=1;fontSize=9;" edge="1" parent="1">
          <mxGeometry relative="1" as="geometry">
            <mxPoint x="590" y="320" as="targetPoint" />
            <mxPoint x="690" y="319.9999999999999" as="sourcePoint" />
          </mxGeometry>
        </mxCell>
        <mxCell id="UYT9CBy9pAq7YvCIUte8-36" value="9. Menampilkan Menu" style="verticalAlign=bottom;endArrow=open;dashed=1;endSize=8;exitX=0;exitY=0.95;shadow=0;strokeWidth=1;fontSize=9;" edge="1" parent="1">
          <mxGeometry relative="1" as="geometry">
            <mxPoint x="475" y="330" as="targetPoint" />
            <mxPoint x="575" y="329.9999999999999" as="sourcePoint" />
          </mxGeometry>
        </mxCell>
        <mxCell id="UYT9CBy9pAq7YvCIUte8-37" value="11. Menu tampil" style="verticalAlign=bottom;endArrow=open;dashed=1;endSize=8;exitX=0;exitY=0.95;shadow=0;strokeWidth=1;fontSize=9;" edge="1" parent="1">
          <mxGeometry relative="1" as="geometry">
            <mxPoint x="170" y="360" as="targetPoint" />
            <mxPoint x="260" y="359.9999999999998" as="sourcePoint" />
          </mxGeometry>
        </mxCell>
        <mxCell id="UYT9CBy9pAq7YvCIUte8-38" value=":Register" style="shape=umlLifeline;perimeter=lifelinePerimeter;container=1;collapsible=0;recursiveResize=0;rounded=0;shadow=0;strokeWidth=1;" vertex="1" parent="1">
          <mxGeometry x="1010" y="130" width="100" height="300" as="geometry" />
        </mxCell>
        <mxCell id="UYT9CBy9pAq7YvCIUte8-39" value="" style="points=[];perimeter=orthogonalPerimeter;rounded=0;shadow=0;strokeWidth=1;" vertex="1" parent="UYT9CBy9pAq7YvCIUte8-38">
          <mxGeometry x="45" y="70" width="10" height="190" as="geometry" />
        </mxCell>
        <mxCell id="UYT9CBy9pAq7YvCIUte8-41" value="" style="endArrow=classic;html=1;rounded=0;" edge="1" parent="UYT9CBy9pAq7YvCIUte8-38">
          <mxGeometry width="50" height="50" relative="1" as="geometry">
            <mxPoint x="-50" y="80" as="sourcePoint" />
            <mxPoint x="40" y="80" as="targetPoint" />
            <Array as="points">
              <mxPoint x="40" y="80" />
            </Array>
          </mxGeometry>
        </mxCell>
        <mxCell id="UYT9CBy9pAq7YvCIUte8-42" value="1. Isi nama, email &amp;amp; password()" style="text;html=1;strokeColor=none;fillColor=none;align=center;verticalAlign=middle;whiteSpace=wrap;rounded=0;fontSize=9;" vertex="1" parent="UYT9CBy9pAq7YvCIUte8-38">
          <mxGeometry x="-61" y="60" width="106" height="20" as="geometry" />
        </mxCell>
        <mxCell id="UYT9CBy9pAq7YvCIUte8-43" value=":Kontrol Register" style="shape=umlLifeline;perimeter=lifelinePerimeter;container=1;collapsible=0;recursiveResize=0;rounded=0;shadow=0;strokeWidth=1;" vertex="1" parent="1">
          <mxGeometry x="1190" y="130" width="100" height="300" as="geometry" />
        </mxCell>
        <mxCell id="UYT9CBy9pAq7YvCIUte8-44" value="" style="points=[];perimeter=orthogonalPerimeter;rounded=0;shadow=0;strokeWidth=1;" vertex="1" parent="UYT9CBy9pAq7YvCIUte8-43">
          <mxGeometry x="45" y="80" width="10" height="120" as="geometry" />
        </mxCell>
        <mxCell id="UYT9CBy9pAq7YvCIUte8-45" value="&lt;div style=&quot;text-align: center; font-size: 9px;&quot;&gt;&lt;span style=&quot;font-size: 9px; background-color: rgb(255, 255, 255);&quot;&gt;5. email sudah ada&lt;/span&gt;&lt;/div&gt;" style="text;whiteSpace=wrap;html=1;fontSize=9;" vertex="1" parent="UYT9CBy9pAq7YvCIUte8-43">
          <mxGeometry x="-65" y="140" width="110" height="20" as="geometry" />
        </mxCell>
        <mxCell id="UYT9CBy9pAq7YvCIUte8-47" value="2. nama,email, password()" style="verticalAlign=bottom;endArrow=block;entryX=0;entryY=0;shadow=0;strokeWidth=1;fontSize=11;" edge="1" source="UYT9CBy9pAq7YvCIUte8-39" target="UYT9CBy9pAq7YvCIUte8-44" parent="1">
          <mxGeometry relative="1" as="geometry">
            <mxPoint x="1165" y="210" as="sourcePoint" />
          </mxGeometry>
        </mxCell>
        <mxCell id="UYT9CBy9pAq7YvCIUte8-48" value="Pengguna" style="shape=umlActor;verticalLabelPosition=bottom;verticalAlign=top;html=1;" vertex="1" parent="1">
          <mxGeometry x="940" y="110" width="30" height="60" as="geometry" />
        </mxCell>
        <mxCell id="UYT9CBy9pAq7YvCIUte8-49" value=":Data User" style="shape=umlLifeline;perimeter=lifelinePerimeter;container=1;collapsible=0;recursiveResize=0;rounded=0;shadow=0;strokeWidth=1;" vertex="1" parent="1">
          <mxGeometry x="1320" y="130" width="100" height="300" as="geometry" />
        </mxCell>
        <mxCell id="UYT9CBy9pAq7YvCIUte8-50" value="" style="points=[];perimeter=orthogonalPerimeter;rounded=0;shadow=0;strokeWidth=1;" vertex="1" parent="UYT9CBy9pAq7YvCIUte8-49">
          <mxGeometry x="45" y="80" width="10" height="160" as="geometry" />
        </mxCell>
        <mxCell id="UYT9CBy9pAq7YvCIUte8-51" value="" style="rounded=0;whiteSpace=wrap;html=1;fontSize=12;" vertex="1" parent="UYT9CBy9pAq7YvCIUte8-49">
          <mxGeometry x="51" y="94" width="10" height="30" as="geometry" />
        </mxCell>
        <mxCell id="UYT9CBy9pAq7YvCIUte8-52" value="" style="endArrow=classic;html=1;rounded=0;fontSize=9;exitX=0.913;exitY=0.027;exitDx=0;exitDy=0;exitPerimeter=0;entryX=1.193;entryY=0.178;entryDx=0;entryDy=0;entryPerimeter=0;" edge="1" parent="UYT9CBy9pAq7YvCIUte8-49" source="UYT9CBy9pAq7YvCIUte8-50" target="UYT9CBy9pAq7YvCIUte8-51">
          <mxGeometry width="50" height="50" relative="1" as="geometry">
            <mxPoint x="70" y="90" as="sourcePoint" />
            <mxPoint x="110" y="110" as="targetPoint" />
            <Array as="points">
              <mxPoint x="80" y="84" />
              <mxPoint x="80" y="100" />
            </Array>
          </mxGeometry>
        </mxCell>
        <mxCell id="UYT9CBy9pAq7YvCIUte8-53" value=":Menu" style="shape=umlLifeline;perimeter=lifelinePerimeter;container=1;collapsible=0;recursiveResize=0;rounded=0;shadow=0;strokeWidth=1;" vertex="1" parent="1">
          <mxGeometry x="1440" y="130" width="100" height="300" as="geometry" />
        </mxCell>
        <mxCell id="UYT9CBy9pAq7YvCIUte8-54" value="" style="points=[];perimeter=orthogonalPerimeter;rounded=0;shadow=0;strokeWidth=1;" vertex="1" parent="UYT9CBy9pAq7YvCIUte8-53">
          <mxGeometry x="45" y="170" width="10" height="70" as="geometry" />
        </mxCell>
        <mxCell id="UYT9CBy9pAq7YvCIUte8-55" value="&lt;span style=&quot;color: rgb(0, 0, 0); font-family: Helvetica; font-size: 9px; font-style: normal; font-variant-ligatures: normal; font-variant-caps: normal; font-weight: 400; letter-spacing: normal; orphans: 2; text-align: center; text-indent: 0px; text-transform: none; widows: 2; word-spacing: 0px; -webkit-text-stroke-width: 0px; background-color: rgb(255, 255, 255); text-decoration-thickness: initial; text-decoration-style: initial; text-decoration-color: initial; float: none; display: inline !important;&quot;&gt;7. Menampilkan Menu()&lt;/span&gt;" style="text;whiteSpace=wrap;html=1;fontSize=9;" vertex="1" parent="UYT9CBy9pAq7YvCIUte8-53">
          <mxGeometry x="-59" y="150" width="99" height="20" as="geometry" />
        </mxCell>
        <mxCell id="UYT9CBy9pAq7YvCIUte8-56" value="" style="endArrow=none;dashed=1;html=1;rounded=0;" edge="1" parent="1">
          <mxGeometry width="50" height="50" relative="1" as="geometry">
            <mxPoint x="954" y="430" as="sourcePoint" />
            <mxPoint x="954" y="210" as="targetPoint" />
          </mxGeometry>
        </mxCell>
        <mxCell id="UYT9CBy9pAq7YvCIUte8-57" value="3. data user()" style="verticalAlign=bottom;endArrow=block;shadow=0;strokeWidth=1;fontSize=12;" edge="1" parent="1">
          <mxGeometry relative="1" as="geometry">
            <mxPoint x="1250" y="220.0000000000001" as="sourcePoint" />
            <mxPoint x="1360" y="220" as="targetPoint" />
          </mxGeometry>
        </mxCell>
        <mxCell id="UYT9CBy9pAq7YvCIUte8-58" value="&lt;span style=&quot;color: rgb(0, 0, 0); font-family: Helvetica; font-size: 10px; font-style: normal; font-variant-ligatures: normal; font-variant-caps: normal; font-weight: 400; letter-spacing: normal; orphans: 2; text-align: center; text-indent: 0px; text-transform: none; widows: 2; word-spacing: 0px; -webkit-text-stroke-width: 0px; background-color: rgb(255, 255, 255); text-decoration-thickness: initial; text-decoration-style: initial; text-decoration-color: initial; float: none; display: inline !important;&quot;&gt;4. Validasi data()&lt;/span&gt;" style="text;whiteSpace=wrap;html=1;fontSize=10;" vertex="1" parent="1">
          <mxGeometry x="1375" y="196" width="80" height="20" as="geometry" />
        </mxCell>
        <mxCell id="UYT9CBy9pAq7YvCIUte8-59" value="" style="endArrow=classic;html=1;rounded=0;fontSize=10;entryX=1;entryY=0.5;entryDx=0;entryDy=0;entryPerimeter=0;dashed=1;" edge="1" parent="1">
          <mxGeometry width="50" height="50" relative="1" as="geometry">
            <mxPoint x="1369.5" y="291" as="sourcePoint" />
            <mxPoint x="1070" y="290" as="targetPoint" />
          </mxGeometry>
        </mxCell>
        <mxCell id="UYT9CBy9pAq7YvCIUte8-60" value="6. pesan error register" style="verticalAlign=bottom;endArrow=open;dashed=1;endSize=8;shadow=0;strokeWidth=1;fontSize=9;" edge="1" parent="1">
          <mxGeometry relative="1" as="geometry">
            <mxPoint x="960" y="290" as="targetPoint" />
            <mxPoint x="1050" y="290" as="sourcePoint" />
          </mxGeometry>
        </mxCell>
        <mxCell id="UYT9CBy9pAq7YvCIUte8-61" value="" style="endArrow=classic;html=1;rounded=0;fontSize=9;exitX=0.968;exitY=0.561;exitDx=0;exitDy=0;exitPerimeter=0;" edge="1" source="UYT9CBy9pAq7YvCIUte8-50" parent="1">
          <mxGeometry width="50" height="50" relative="1" as="geometry">
            <mxPoint x="1380" y="300" as="sourcePoint" />
            <mxPoint x="1480" y="300" as="targetPoint" />
          </mxGeometry>
        </mxCell>
        <mxCell id="UYT9CBy9pAq7YvCIUte8-63" value="9. Menampilkan Menu" style="verticalAlign=bottom;endArrow=open;dashed=1;endSize=8;shadow=0;strokeWidth=1;fontSize=9;" edge="1" parent="1">
          <mxGeometry relative="1" as="geometry">
            <mxPoint x="1240.0238095238096" y="340" as="targetPoint" />
            <mxPoint x="1489.4999999999995" y="340" as="sourcePoint" />
          </mxGeometry>
        </mxCell>
        <mxCell id="UYT9CBy9pAq7YvCIUte8-64" value="11. Menu tampil" style="verticalAlign=bottom;endArrow=open;dashed=1;endSize=8;shadow=0;strokeWidth=1;fontSize=9;" edge="1" parent="1" source="UYT9CBy9pAq7YvCIUte8-43">
          <mxGeometry relative="1" as="geometry">
            <mxPoint x="960" y="370" as="targetPoint" />
            <mxPoint x="1050" y="369.9999999999998" as="sourcePoint" />
          </mxGeometry>
        </mxCell>
        <mxCell id="UYT9CBy9pAq7YvCIUte8-65" value=":Gallery Produk" style="shape=umlLifeline;perimeter=lifelinePerimeter;container=1;collapsible=0;recursiveResize=0;rounded=0;shadow=0;strokeWidth=1;" vertex="1" parent="1">
          <mxGeometry x="200" y="520" width="100" height="300" as="geometry" />
        </mxCell>
        <mxCell id="UYT9CBy9pAq7YvCIUte8-66" value="" style="points=[];perimeter=orthogonalPerimeter;rounded=0;shadow=0;strokeWidth=1;" vertex="1" parent="UYT9CBy9pAq7YvCIUte8-65">
          <mxGeometry x="45" y="70" width="10" height="190" as="geometry" />
        </mxCell>
        <mxCell id="UYT9CBy9pAq7YvCIUte8-67" value="" style="endArrow=classic;html=1;rounded=0;" edge="1" parent="UYT9CBy9pAq7YvCIUte8-65">
          <mxGeometry width="50" height="50" relative="1" as="geometry">
            <mxPoint x="-50" y="80" as="sourcePoint" />
            <mxPoint x="40" y="80" as="targetPoint" />
            <Array as="points">
              <mxPoint x="40" y="80" />
            </Array>
          </mxGeometry>
        </mxCell>
        <mxCell id="UYT9CBy9pAq7YvCIUte8-68" value="1. pilih produk" style="text;html=1;strokeColor=none;fillColor=none;align=center;verticalAlign=middle;whiteSpace=wrap;rounded=0;fontSize=9;" vertex="1" parent="UYT9CBy9pAq7YvCIUte8-65">
          <mxGeometry x="-61" y="60" width="106" height="20" as="geometry" />
        </mxCell>
        <mxCell id="UYT9CBy9pAq7YvCIUte8-69" value=":Keranjang" style="shape=umlLifeline;perimeter=lifelinePerimeter;container=1;collapsible=0;recursiveResize=0;rounded=0;shadow=0;strokeWidth=1;" vertex="1" parent="1">
          <mxGeometry x="380" y="520" width="100" height="300" as="geometry" />
        </mxCell>
        <mxCell id="UYT9CBy9pAq7YvCIUte8-70" value="" style="points=[];perimeter=orthogonalPerimeter;rounded=0;shadow=0;strokeWidth=1;" vertex="1" parent="UYT9CBy9pAq7YvCIUte8-69">
          <mxGeometry x="45" y="80" width="10" height="120" as="geometry" />
        </mxCell>
        <mxCell id="UYT9CBy9pAq7YvCIUte8-71" value="&lt;div style=&quot;text-align: center; font-size: 9px;&quot;&gt;&lt;span style=&quot;font-size: 9px; background-color: rgb(255, 255, 255);&quot;&gt;5. Keranjang kosong&lt;/span&gt;&lt;/div&gt;" style="text;whiteSpace=wrap;html=1;fontSize=9;" vertex="1" parent="UYT9CBy9pAq7YvCIUte8-69">
          <mxGeometry x="-65" y="140" width="110" height="20" as="geometry" />
        </mxCell>
        <mxCell id="UYT9CBy9pAq7YvCIUte8-72" value="2. nama,email, password()" style="verticalAlign=bottom;endArrow=block;entryX=0;entryY=0;shadow=0;strokeWidth=1;fontSize=10;" edge="1" source="UYT9CBy9pAq7YvCIUte8-66" target="UYT9CBy9pAq7YvCIUte8-70" parent="1">
          <mxGeometry relative="1" as="geometry">
            <mxPoint x="355" y="600" as="sourcePoint" />
          </mxGeometry>
        </mxCell>
        <mxCell id="UYT9CBy9pAq7YvCIUte8-73" value="Pengguna" style="shape=umlActor;verticalLabelPosition=bottom;verticalAlign=top;html=1;" vertex="1" parent="1">
          <mxGeometry x="130" y="500" width="30" height="60" as="geometry" />
        </mxCell>
        <mxCell id="UYT9CBy9pAq7YvCIUte8-74" value=":Pesan barang" style="shape=umlLifeline;perimeter=lifelinePerimeter;container=1;collapsible=0;recursiveResize=0;rounded=0;shadow=0;strokeWidth=1;" vertex="1" parent="1">
          <mxGeometry x="510" y="520" width="100" height="300" as="geometry" />
        </mxCell>
        <mxCell id="UYT9CBy9pAq7YvCIUte8-75" value="" style="points=[];perimeter=orthogonalPerimeter;rounded=0;shadow=0;strokeWidth=1;" vertex="1" parent="UYT9CBy9pAq7YvCIUte8-74">
          <mxGeometry x="45" y="80" width="10" height="160" as="geometry" />
        </mxCell>
        <mxCell id="UYT9CBy9pAq7YvCIUte8-76" value="" style="rounded=0;whiteSpace=wrap;html=1;fontSize=12;" vertex="1" parent="UYT9CBy9pAq7YvCIUte8-74">
          <mxGeometry x="51" y="94" width="10" height="30" as="geometry" />
        </mxCell>
        <mxCell id="UYT9CBy9pAq7YvCIUte8-77" value="" style="endArrow=classic;html=1;rounded=0;fontSize=9;exitX=0.913;exitY=0.027;exitDx=0;exitDy=0;exitPerimeter=0;entryX=1.193;entryY=0.178;entryDx=0;entryDy=0;entryPerimeter=0;" edge="1" parent="UYT9CBy9pAq7YvCIUte8-74" source="UYT9CBy9pAq7YvCIUte8-75" target="UYT9CBy9pAq7YvCIUte8-76">
          <mxGeometry width="50" height="50" relative="1" as="geometry">
            <mxPoint x="70" y="90" as="sourcePoint" />
            <mxPoint x="110" y="110" as="targetPoint" />
            <Array as="points">
              <mxPoint x="80" y="84" />
              <mxPoint x="80" y="100" />
            </Array>
          </mxGeometry>
        </mxCell>
        <mxCell id="UYT9CBy9pAq7YvCIUte8-78" value=":Transaksi" style="shape=umlLifeline;perimeter=lifelinePerimeter;container=1;collapsible=0;recursiveResize=0;rounded=0;shadow=0;strokeWidth=1;" vertex="1" parent="1">
          <mxGeometry x="630" y="520" width="100" height="300" as="geometry" />
        </mxCell>
        <mxCell id="UYT9CBy9pAq7YvCIUte8-79" value="" style="points=[];perimeter=orthogonalPerimeter;rounded=0;shadow=0;strokeWidth=1;" vertex="1" parent="UYT9CBy9pAq7YvCIUte8-78">
          <mxGeometry x="45" y="170" width="10" height="70" as="geometry" />
        </mxCell>
        <mxCell id="UYT9CBy9pAq7YvCIUte8-80" value="&lt;span style=&quot;color: rgb(0, 0, 0); font-family: Helvetica; font-size: 9px; font-style: normal; font-variant-ligatures: normal; font-variant-caps: normal; font-weight: 400; letter-spacing: normal; orphans: 2; text-align: center; text-indent: 0px; text-transform: none; widows: 2; word-spacing: 0px; -webkit-text-stroke-width: 0px; background-color: rgb(255, 255, 255); text-decoration-thickness: initial; text-decoration-style: initial; text-decoration-color: initial; float: none; display: inline !important;&quot;&gt;7. Melakukan transaksi()&lt;/span&gt;" style="text;whiteSpace=wrap;html=1;fontSize=9;" vertex="1" parent="UYT9CBy9pAq7YvCIUte8-78">
          <mxGeometry x="-63" y="148" width="110" height="20" as="geometry" />
        </mxCell>
        <mxCell id="UYT9CBy9pAq7YvCIUte8-81" value="" style="endArrow=none;dashed=1;html=1;rounded=0;" edge="1" parent="1">
          <mxGeometry width="50" height="50" relative="1" as="geometry">
            <mxPoint x="144" y="820" as="sourcePoint" />
            <mxPoint x="144" y="600.0000000000001" as="targetPoint" />
          </mxGeometry>
        </mxCell>
        <mxCell id="UYT9CBy9pAq7YvCIUte8-82" value="3. data produk()" style="verticalAlign=bottom;endArrow=block;shadow=0;strokeWidth=1;fontSize=12;" edge="1" parent="1">
          <mxGeometry relative="1" as="geometry">
            <mxPoint x="440" y="610.0000000000001" as="sourcePoint" />
            <mxPoint x="550" y="610.0000000000001" as="targetPoint" />
          </mxGeometry>
        </mxCell>
        <mxCell id="UYT9CBy9pAq7YvCIUte8-83" value="&lt;span style=&quot;color: rgb(0, 0, 0); font-family: Helvetica; font-size: 10px; font-style: normal; font-variant-ligatures: normal; font-variant-caps: normal; font-weight: 400; letter-spacing: normal; orphans: 2; text-align: center; text-indent: 0px; text-transform: none; widows: 2; word-spacing: 0px; -webkit-text-stroke-width: 0px; background-color: rgb(255, 255, 255); text-decoration-thickness: initial; text-decoration-style: initial; text-decoration-color: initial; float: none; display: inline !important;&quot;&gt;4. Validasi data()&lt;/span&gt;" style="text;whiteSpace=wrap;html=1;fontSize=10;" vertex="1" parent="1">
          <mxGeometry x="565" y="586" width="80" height="20" as="geometry" />
        </mxCell>
        <mxCell id="UYT9CBy9pAq7YvCIUte8-84" value="" style="endArrow=classic;html=1;rounded=0;fontSize=10;entryX=1;entryY=0.5;entryDx=0;entryDy=0;entryPerimeter=0;dashed=1;" edge="1" parent="1">
          <mxGeometry width="50" height="50" relative="1" as="geometry">
            <mxPoint x="559.5" y="681" as="sourcePoint" />
            <mxPoint x="260" y="680" as="targetPoint" />
          </mxGeometry>
        </mxCell>
        <mxCell id="UYT9CBy9pAq7YvCIUte8-85" value="6. pesan error transaksi" style="verticalAlign=bottom;endArrow=open;dashed=1;endSize=8;shadow=0;strokeWidth=1;fontSize=9;" edge="1" parent="1">
          <mxGeometry relative="1" as="geometry">
            <mxPoint x="147" y="678" as="targetPoint" />
            <mxPoint x="237" y="678" as="sourcePoint" />
          </mxGeometry>
        </mxCell>
        <mxCell id="UYT9CBy9pAq7YvCIUte8-86" value="" style="endArrow=classic;html=1;rounded=0;fontSize=9;exitX=0.968;exitY=0.561;exitDx=0;exitDy=0;exitPerimeter=0;" edge="1" source="UYT9CBy9pAq7YvCIUte8-75" parent="1">
          <mxGeometry width="50" height="50" relative="1" as="geometry">
            <mxPoint x="570" y="690" as="sourcePoint" />
            <mxPoint x="670" y="690" as="targetPoint" />
          </mxGeometry>
        </mxCell>
        <mxCell id="UYT9CBy9pAq7YvCIUte8-87" value="9. Menampilkan Transaksi" style="verticalAlign=bottom;endArrow=open;dashed=1;endSize=8;shadow=0;strokeWidth=1;fontSize=9;" edge="1" parent="1">
          <mxGeometry relative="1" as="geometry">
            <mxPoint x="430.02380952380963" y="730" as="targetPoint" />
            <mxPoint x="679.4999999999995" y="730" as="sourcePoint" />
          </mxGeometry>
        </mxCell>
        <mxCell id="UYT9CBy9pAq7YvCIUte8-88" value="11. Transaksi Tampil" style="verticalAlign=bottom;endArrow=open;dashed=1;endSize=8;shadow=0;strokeWidth=1;fontSize=9;" edge="1" source="UYT9CBy9pAq7YvCIUte8-69" parent="1">
          <mxGeometry relative="1" as="geometry">
            <mxPoint x="150" y="760" as="targetPoint" />
            <mxPoint x="240" y="759.9999999999998" as="sourcePoint" />
          </mxGeometry>
        </mxCell>
      </root>
    </mxGraphModel>
  </diagram>
</mxfile>
